<svg width="295" height="459" viewBox="0 0 295 459" fill="none" xmlns="http://www.w3.org/2000/svg">
<path d="M47.2148 -1.13763L76.024 -30.9868C78.4747 -33.5367 82.526 -33.5867 85.0268 -31.1367L114.886 -2.33761C117.437 0.112322 117.487 4.1622 115.036 6.66213L86.2272 36.5112C83.7764 39.0612 79.7251 39.1112 77.2243 36.6612L47.3648 7.86211C44.864 5.41218 44.764 1.4123 47.2148 -1.13763Z" stroke="#98C0D6" stroke-miterlimit="10"/>
<path d="M297.145 76.6095L325.954 46.7603C328.405 44.2104 332.456 44.1604 334.957 46.6104L364.816 75.4095C367.367 77.8594 367.417 81.9093 364.966 84.4092L336.157 114.258C333.706 116.808 329.655 116.858 327.154 114.408L297.295 85.6092C294.794 83.1593 294.694 79.1594 297.145 76.6095Z" stroke="#98C0D6" stroke-miterlimit="10"/>
<path d="M256.332 118.908L285.141 89.0587C287.591 86.5088 291.643 86.4588 294.144 88.9087L324.003 117.708C326.554 120.158 326.604 124.208 324.153 126.708L295.344 156.557C292.893 159.107 288.842 159.157 286.341 156.707L256.482 127.908C253.981 125.458 253.881 121.408 256.332 118.908Z" stroke="#98C0D6" stroke-miterlimit="10"/>
<path d="M215.518 161.157L244.328 131.308C246.778 128.758 250.83 128.708 253.33 131.158L283.19 159.957C285.741 162.407 285.791 166.457 283.34 168.957L254.531 198.806C252.08 201.356 248.029 201.406 245.528 198.956L215.669 170.157C213.168 167.757 213.068 163.707 215.518 161.157Z" stroke="#98C0D6" stroke-miterlimit="10"/>
<path d="M295.894 -6.23816L324.703 -36.0874C327.154 -38.6373 331.205 -38.6873 333.706 -36.2374L363.565 -7.43814C366.116 -4.98821 366.166 -0.938312 363.715 1.56162L334.906 31.4109C332.456 33.9608 328.404 34.0108 325.903 31.5609L296.044 2.76161C293.493 0.31167 293.443 -3.73822 295.894 -6.23816Z" stroke="#98C0D6" stroke-miterlimit="10"/>
<path d="M255.081 36.0118L283.89 6.16266C286.341 3.61273 290.392 3.56271 292.893 6.01264L322.753 34.8118C325.303 37.2617 325.353 41.3116 322.903 43.8115L294.094 73.6607C291.643 76.2106 287.591 76.2606 285.091 73.8106L255.231 45.0115C252.68 42.6116 252.63 38.5617 255.081 36.0118Z" stroke="#98C0D6" stroke-miterlimit="10"/>
<path d="M214.268 78.3098L243.077 48.4608C245.528 45.9108 249.579 45.8608 252.08 48.3107L281.94 77.1099C284.49 79.5598 284.54 83.6097 282.09 86.1096L253.28 115.959C250.83 118.509 246.778 118.559 244.278 116.109L214.418 87.3096C211.917 84.9096 211.817 80.8598 214.268 78.3098Z" stroke="#98C0D6" stroke-miterlimit="10"/>
<path d="M173.455 120.608L202.264 90.7586C204.715 88.2087 208.767 88.1587 211.267 90.6087L241.127 119.408C243.678 121.858 243.728 125.908 241.277 128.408L212.468 158.257C210.017 160.807 205.966 160.857 203.465 158.407L173.605 129.607C171.105 127.158 171.005 123.108 173.455 120.608Z" stroke="#98C0D6" stroke-miterlimit="10"/>
<path d="M213.017 -4.53804L241.827 -34.3871C244.277 -36.9371 248.329 -36.9871 250.829 -34.5372L280.689 -5.73802C283.24 -3.2881 283.29 0.761783 280.839 3.26171L252.03 33.1109C249.579 35.6608 245.528 35.7108 243.027 33.2608L213.168 4.46169C210.617 2.01176 210.567 -2.03812 213.017 -4.53804Z" stroke="#98C0D6" stroke-miterlimit="10"/>
<path d="M172.205 37.7101L201.014 7.86106C203.464 5.31114 207.516 5.26112 210.017 7.71104L239.876 36.5101C242.427 38.96 242.477 43.0099 240.026 45.5098L211.217 75.3589C208.766 77.9088 204.715 77.9588 202.214 75.5089L172.355 46.7098C169.804 44.3099 169.754 40.26 172.205 37.7101Z" stroke="#98C0D6" stroke-miterlimit="10"/>
<path d="M131.392 80.0096L160.201 50.1606C162.652 47.6106 166.703 47.5606 169.204 50.0106L199.063 78.8096C201.614 81.2596 201.664 85.3094 199.214 87.8094L170.404 117.658C167.954 120.208 163.902 120.258 161.401 117.808L131.542 89.0093C128.991 86.6094 128.941 82.5595 131.392 80.0096Z" stroke="#98C0D6" stroke-miterlimit="10"/>
<path d="M130.091 -2.83755L158.9 -32.6867C161.351 -35.2366 165.402 -35.2866 167.903 -32.8366L197.763 -4.03753C200.314 -1.5876 200.364 2.46228 197.913 4.9622L169.104 34.8113C166.653 37.3612 162.602 37.4112 160.101 34.9613L130.241 6.16218C127.741 3.71225 127.691 -0.287627 130.091 -2.83755Z" stroke="#98C0D6" stroke-miterlimit="10"/>
<path d="M89.3283 39.4604L118.137 9.61132C120.588 7.06139 124.64 7.01137 127.14 9.4613L157 38.2605C159.551 40.7104 159.601 44.7603 157.15 47.2602L128.341 77.1094C125.89 79.6593 121.839 79.7093 119.338 77.2594L89.4784 48.4602C86.9275 46.0103 86.8775 41.9604 89.3283 39.4604Z" stroke="#98C0D6" stroke-miterlimit="10"/>
<path d="M6.00192 40.761L34.8111 10.9119C37.2618 8.36201 41.3131 8.31198 43.8139 10.7619L73.6734 39.561C76.2242 42.011 76.2742 46.0609 73.8235 48.5608L45.0143 78.4099C42.5635 80.9599 38.5123 81.0098 36.0115 78.5599L6.15196 49.7608C3.60115 47.3108 3.55114 43.311 6.00192 40.761Z" stroke="#98C0D6" stroke-miterlimit="10"/>
<path d="M174.305 203.056L203.115 173.207C205.565 170.657 209.617 170.607 212.117 173.057L241.977 201.856C244.528 204.306 244.578 208.356 242.127 210.856L213.318 240.705C210.867 243.255 206.816 243.305 204.315 240.855L174.455 212.056C171.955 209.656 171.855 205.606 174.305 203.056Z" stroke="#98C0D6" stroke-miterlimit="10"/>
<path d="M133.492 245.354L162.301 215.505C164.752 212.955 168.803 212.905 171.304 215.355L201.164 244.154C203.715 246.604 203.765 250.654 201.314 253.154L172.505 283.003C170.054 285.553 166.003 285.603 163.502 283.153L133.642 254.354C131.141 251.954 131.041 247.904 133.492 245.354Z" stroke="#98C0D6" stroke-miterlimit="10"/>
<path d="M92.6797 287.654L121.489 257.805C123.94 255.255 127.991 255.205 130.492 257.655L160.351 286.404C162.902 288.854 162.952 292.903 160.501 295.403L131.692 325.252C129.241 327.802 125.19 327.852 122.689 325.402L92.8298 296.603C90.329 294.203 90.2289 290.154 92.6797 287.654Z" stroke="#98C0D6" stroke-miterlimit="10"/>
<path d="M51.8666 329.902L80.6758 300.053C83.1266 297.503 87.1779 297.453 89.6787 299.903L119.538 328.702C122.089 331.152 122.139 335.202 119.688 337.702L90.8791 367.551C88.4283 370.101 84.377 370.151 81.8762 367.701L52.0167 338.902C49.5159 336.502 49.4659 332.452 51.8666 329.902Z" stroke="#98C0D6" stroke-miterlimit="10"/>
<path d="M132.242 162.507L161.051 132.658C163.502 130.108 167.553 130.058 170.054 132.508L199.914 161.307C202.464 163.757 202.514 167.807 200.064 170.307L171.254 200.156C168.804 202.706 164.752 202.756 162.252 200.306L132.392 171.507C129.841 169.057 129.791 165.007 132.242 162.507Z" stroke="#98C0D6" stroke-miterlimit="10"/>
<path d="M91.4289 204.756L120.238 174.907C122.689 172.357 126.74 172.307 129.241 174.757L159.1 203.556C161.651 206.006 161.701 210.056 159.25 212.556L130.441 242.405C127.991 244.955 123.939 245.005 121.438 242.555L91.5789 213.756C89.0281 211.356 88.9781 207.306 91.4289 204.756Z" stroke="#98C0D6" stroke-miterlimit="10"/>
<path d="M50.616 247.055L79.4251 217.205C81.8759 214.655 85.9272 214.605 88.428 217.055L118.287 245.855C120.838 248.304 120.888 252.354 118.438 254.854L89.6284 284.703C87.1776 287.253 83.1263 287.303 80.6255 284.853L50.7661 256.054C48.2653 253.654 48.1652 249.604 50.616 247.055Z" stroke="#98C0D6" stroke-miterlimit="10"/>
<path d="M9.8035 289.354L38.6126 259.505C41.0634 256.955 45.1147 256.905 47.6155 259.355L77.4749 288.154C80.0257 290.604 80.0757 294.654 77.625 297.154L48.8159 326.953C46.3651 329.503 42.3138 329.553 39.813 327.103L9.95354 298.304C7.45275 295.904 7.35272 291.904 9.8035 289.354Z" stroke="#98C0D6" stroke-miterlimit="10"/>
<path d="M90.1286 121.909L118.938 92.0596C121.389 89.5097 125.44 89.4597 127.941 91.9096L157.8 120.709C160.351 123.159 160.401 127.209 157.95 129.709L129.141 159.558C126.69 162.108 122.639 162.158 120.138 159.708L90.3287 130.958C87.7779 128.509 87.7278 124.459 90.1286 121.909Z" stroke="#98C0D6" stroke-miterlimit="10"/>
<path d="M49.3655 164.207L78.1747 134.358C80.6255 131.808 84.6768 131.758 87.1776 134.208L117.037 163.007C119.588 165.457 119.638 169.507 117.187 172.007L88.3779 201.856C85.9272 204.406 81.8759 204.456 79.3751 202.006L49.5156 173.207C46.9648 170.757 46.9148 166.757 49.3655 164.207Z" stroke="#98C0D6" stroke-miterlimit="10"/>
<path d="M8.55281 206.505L37.362 176.656C39.8127 174.106 43.864 174.056 46.3648 176.506L76.2243 205.305C78.7751 207.755 78.8252 211.805 76.3744 214.305L47.5652 244.154C45.1144 246.704 41.0631 246.754 38.5624 244.304L8.70285 215.505C6.15204 213.055 6.10203 209.005 8.55281 206.505Z" stroke="#98C0D6" stroke-miterlimit="10"/>
<path d="M48.0657 81.3594L76.8748 51.5103C79.3256 48.9604 83.3769 48.9104 85.8777 51.3603L115.737 80.1595C118.288 82.6094 118.338 86.6593 115.887 89.1592L87.0781 119.008C84.6273 121.558 80.576 121.608 78.0752 119.158L48.2157 90.3592C45.7149 87.9093 45.6149 83.8594 48.0657 81.3594Z" stroke="#98C0D6" stroke-miterlimit="10"/>
<path d="M7.25233 123.609L36.0615 93.7596C38.5122 91.2096 42.5635 91.1597 45.0643 93.6096L74.9238 122.409C77.4746 124.859 77.5246 128.909 75.0739 131.408L46.2647 161.258C43.8139 163.807 39.7627 163.858 37.2619 161.408L7.40237 132.608C4.90158 130.209 4.80155 126.159 7.25233 123.609Z" stroke="#98C0D6" stroke-miterlimit="10"/>
<path d="M11.1034 372.2L39.9125 342.351C42.3633 339.801 46.4146 339.751 48.9154 342.201L78.7749 371C81.3257 373.45 81.3757 377.5 78.9249 380L50.1158 409.849C47.665 412.399 43.6137 412.449 41.1129 409.999L11.2535 381.2C8.70267 378.8 8.65263 374.75 11.1034 372.2Z" stroke="#98C0D6" stroke-miterlimit="10"/>
<path d="M257.432 202.056L286.241 172.207C288.692 169.657 292.743 169.607 295.244 172.057L325.103 200.856C327.654 203.306 327.704 207.356 325.253 209.856L296.444 239.705C293.993 242.255 289.942 242.305 287.441 239.855L257.582 211.056C255.031 208.656 254.981 204.606 257.432 202.056Z" stroke="#98C0D6" stroke-miterlimit="10"/>
<path d="M260.783 450.248L289.592 420.399C292.043 417.849 296.094 417.799 298.595 420.249L328.455 449.048C331.005 451.498 331.055 455.548 328.605 458.048L299.795 487.897C297.345 490.447 293.293 490.497 290.793 488.047L260.933 459.248C258.432 456.848 258.382 452.798 260.783 450.248Z" stroke="#98C0D6" stroke-miterlimit="10"/>
<path d="M259.532 367.4L288.342 337.551C290.792 335.001 294.844 334.951 297.344 337.401L327.204 366.2C329.755 368.65 329.805 372.7 327.354 375.2L298.545 405.049C296.094 407.599 292.043 407.649 289.542 405.199L259.683 376.4C257.182 374 257.082 369.95 259.532 367.4Z" stroke="#98C0D6" stroke-miterlimit="10"/>
<path d="M218.72 409.7L247.529 379.851C249.98 377.301 254.031 377.251 256.532 379.701L286.391 408.5C288.942 410.95 288.992 415 286.541 417.5L257.732 447.349C255.281 449.899 251.23 449.949 248.729 447.499L218.87 418.7C216.369 416.25 216.269 412.25 218.72 409.7Z" stroke="#98C0D6" stroke-miterlimit="10"/>
<path d="M177.907 451.998L206.716 422.149C209.167 419.599 213.218 419.549 215.719 421.999L245.578 450.798C248.129 453.248 248.179 457.298 245.728 459.798L216.919 489.647C214.468 492.197 210.417 492.247 207.916 489.797L178.057 460.998C175.556 458.548 175.456 454.498 177.907 451.998Z" stroke="#98C0D6" stroke-miterlimit="10"/>
<path d="M258.282 284.553L287.091 254.704C289.542 252.154 293.593 252.104 296.094 254.554L325.904 283.353C328.454 285.803 328.504 289.853 326.054 292.353L297.245 322.202C294.794 324.752 290.742 324.802 288.242 322.352L258.382 293.553C255.881 291.103 255.831 287.103 258.282 284.553Z" stroke="#98C0D6" stroke-miterlimit="10"/>
<path d="M217.819 326.952L246.628 297.102C249.079 294.553 253.131 294.503 255.631 296.952L285.491 325.752C288.042 328.201 288.092 332.251 285.641 334.751L256.832 364.6C254.381 367.15 250.33 367.2 247.829 364.75L217.969 335.951C215.419 333.501 215.369 329.451 217.819 326.952Z" stroke="#98C0D6" stroke-miterlimit="10"/>
<path d="M176.656 369.1L205.465 339.251C207.916 336.701 211.967 336.651 214.468 339.101L244.327 367.9C246.878 370.35 246.928 374.4 244.478 376.9L215.668 406.749C213.218 409.299 209.166 409.349 206.666 406.899L176.806 378.1C174.255 375.7 174.205 371.65 176.656 369.1Z" stroke="#98C0D6" stroke-miterlimit="10"/>
<path d="M135.843 411.4L164.652 381.551C167.103 379.001 171.154 378.951 173.655 381.401L203.515 410.2C206.065 412.65 206.115 416.7 203.665 419.2L174.855 449.049C172.405 451.599 168.353 451.649 165.853 449.199L135.993 420.4C133.492 417.95 133.392 413.95 135.843 411.4Z" stroke="#98C0D6" stroke-miterlimit="10"/>
<path d="M216.169 243.955L244.978 214.106C247.429 211.556 251.48 211.506 253.981 213.956L283.84 242.755C286.391 245.205 286.441 249.255 283.99 251.755L255.181 281.604C252.73 284.154 248.679 284.204 246.178 281.754L216.319 252.955C213.818 250.555 213.718 246.505 216.169 243.955Z" stroke="#98C0D6" stroke-miterlimit="10"/>
<path d="M175.356 286.253L204.165 256.404C206.616 253.854 210.667 253.804 213.168 256.254L243.027 285.053C245.578 287.503 245.628 291.553 243.177 294.053L214.368 323.902C211.917 326.452 207.866 326.502 205.365 324.052L175.506 295.252C173.005 292.803 172.955 288.803 175.356 286.253Z" stroke="#98C0D6" stroke-miterlimit="10"/>
<path d="M134.593 328.552L163.402 298.703C165.853 296.153 169.904 296.103 172.405 298.553L202.264 327.352C204.815 329.802 204.865 333.852 202.414 336.352L173.605 366.201C171.154 368.751 167.103 368.801 164.602 366.351L134.743 337.552C132.192 335.102 132.142 331.052 134.593 328.552Z" stroke="#98C0D6" stroke-miterlimit="10"/>
<path d="M93.7798 370.801L122.589 340.952C125.04 338.402 129.091 338.352 131.592 340.802L161.451 369.601C164.002 372.051 164.052 376.1 161.601 378.6L132.792 408.449C130.341 410.999 126.29 411.049 123.789 408.599L93.9298 379.8C91.379 377.4 91.329 373.351 93.7798 370.801Z" stroke="#98C0D6" stroke-miterlimit="10"/>
<path d="M95.0305 453.698L123.84 423.849C126.29 421.299 130.342 421.249 132.843 423.699L162.702 452.448C165.253 454.898 165.303 458.948 162.852 461.448L134.043 491.297C131.592 493.847 127.541 493.897 125.04 491.447L95.1805 462.648C92.6797 460.248 92.5797 456.198 95.0305 453.698Z" stroke="#98C0D6" stroke-miterlimit="10"/>
<path d="M52.9668 413.1L81.776 383.251C84.2267 380.701 88.278 380.651 90.7788 383.101L120.638 411.9C123.189 414.35 123.239 418.4 120.788 420.9L91.9792 450.749C89.5284 453.299 85.4771 453.349 82.9763 450.899L53.1168 422.1C50.566 419.7 50.516 415.65 52.9668 413.1Z" stroke="#98C0D6" stroke-miterlimit="10"/>
<path d="M12.1538 455.398L40.9629 425.549C43.4137 422.999 47.4649 422.949 49.9657 425.399L79.8252 454.199C82.376 456.648 82.426 460.698 79.9752 463.198L51.1661 493.047C48.7154 495.597 44.6641 495.647 42.1633 493.197L12.3038 464.398C9.80302 461.948 9.70299 457.898 12.1538 455.398Z" stroke="#98C0D6" stroke-miterlimit="10"/>
</svg>
