<svg width="25" height="21" viewBox="0 0 25 21" fill="none" xmlns="http://www.w3.org/2000/svg">
<path d="M2.79678 18.7938L0.703659 19.0416V11.0283L2.79678 11.2762V18.7938Z" fill="white"/>
<path d="M11.0907 20.2805C10.2052 20.2805 9.40013 20.0327 8.59509 19.6196L5.53593 18.1326C5.53593 18.1326 5.53593 18.1326 5.45542 18.1326H3.76483V12.4324L5.29441 11.8542C5.77744 11.6889 6.26046 11.6063 6.74349 11.6063H8.43408C8.67559 11.6063 8.91711 11.6063 9.15862 11.6889L15.1159 12.8455C15.6795 12.9281 16.1625 13.1759 16.565 13.589C16.726 13.7542 16.8065 13.9194 16.8065 14.1673C16.8065 14.5803 16.404 14.9934 16.0015 14.9934L10.2857 14.5803C10.2052 14.5803 10.2052 14.5803 10.1247 14.6629C10.1247 14.6629 10.0442 14.7456 10.0442 14.8282C10.0442 14.9108 10.0442 14.9934 10.1247 14.9934L14.4719 17.3065H14.5524H18.4166C18.4166 17.3065 18.4166 17.3065 18.4971 17.3065L23.4079 15.9021C23.4884 15.9021 23.5689 15.9021 23.6494 15.9021C23.8909 15.9021 24.0519 15.9847 24.2129 16.0673C24.6154 16.3978 24.7765 16.9761 24.3739 17.3891C24.2934 17.5543 24.1324 17.637 23.8909 17.7196L16.9675 20.1979C16.4845 20.3631 15.921 20.4457 15.438 20.4457H11.0907V20.2805Z" fill="white"/>
<path d="M11.8949 8.63281L8.03069 5.24576L9.56027 3.3457L11.8949 5.32837L17.2887 0.702148L18.8183 2.6022L11.8949 8.63281Z" fill="white"/>
</svg>
