<svg width="30" height="20" viewBox="0 0 30 20" fill="none" xmlns="http://www.w3.org/2000/svg">
<path d="M24.183 9.02342C23.9764 9.02342 23.7698 9.02342 23.5633 9.02342C23.2878 9.02342 23.0812 9.02342 22.8402 9.02342H21.4285C21.1531 9.02342 20.8776 9.02342 20.6022 9.02342L21.3941 7.38836C22.427 5.25568 23.46 3.05191 24.4929 0.919223C24.5273 0.883679 24.7339 0.7415 24.8028 0.7415C25.4225 0.67041 26.1112 0.67041 26.9719 0.67041C27.3507 0.67041 27.695 0.67041 28.0738 0.67041H28.2115C28.6247 0.67041 29.0034 0.67041 29.4166 0.67041C29.451 0.67041 29.4854 0.67041 29.4854 0.67041C29.4854 0.67041 29.4854 0.705955 29.451 0.705955C29.0034 1.63012 28.5558 2.51874 28.1426 3.4429C27.3507 5.14905 26.4899 6.89074 25.6291 8.59689C25.5603 8.66797 25.2504 8.88124 24.9405 8.91679C24.7339 8.98788 24.4929 9.02342 24.183 9.02342Z" fill="white"/>
<path d="M16.8491 9.02342C16.6425 9.02342 16.4359 9.02342 16.2293 9.02342C16.0227 9.02342 15.7817 9.02342 15.5751 9.02342H13.9913H13.0961L13.3026 8.59689C14.4733 6.03766 15.7128 3.4429 16.9868 0.919223C17.0212 0.848134 17.2967 0.705955 17.4 0.705955C17.9853 0.67041 18.6395 0.67041 19.4314 0.67041C19.7757 0.67041 20.1545 0.67041 20.4988 0.67041H20.6021C21.0153 0.67041 21.394 0.67041 21.8072 0.67041C21.8072 0.67041 21.9449 0.67041 21.9793 0.67041C21.9793 0.67041 21.9793 0.705955 21.9449 0.705955C21.4973 1.66566 21.0153 2.62537 20.5676 3.54953C19.7757 5.22014 18.9494 6.96183 18.123 8.63243C18.0886 8.70352 17.8131 8.91679 17.5377 8.95233C17.3655 8.98788 17.1245 9.02342 16.8491 9.02342Z" fill="white"/>
<path d="M8.75772 8.95233C7.72478 8.95233 6.76071 8.95233 5.62447 8.91679L6.14094 7.8149C7.24274 5.50449 8.37898 3.123 9.54964 0.812589C9.6185 0.777044 9.75623 0.705955 9.79066 0.705955C10.5481 0.67041 11.3056 0.67041 11.8565 0.67041H13.5781C13.888 0.67041 14.1634 0.67041 14.4733 0.67041C14.5077 0.67041 14.5422 0.67041 14.5422 0.67041C14.5422 0.705955 14.5077 0.705955 14.5077 0.7415C13.2682 3.33627 11.9598 6.10875 10.6514 8.77461C10.617 8.8457 10.5481 8.91679 10.5137 8.95233C9.92838 8.95233 9.34305 8.95233 8.75772 8.95233Z" fill="white"/>
<path d="M19.4313 19.7223C19.2247 19.7223 19.0182 19.7223 18.8116 19.7223C18.5361 19.7223 18.3295 19.7223 18.0885 19.7223H16.6768C16.4014 19.7223 16.1259 19.7223 15.8505 19.7223L16.6424 18.0872C17.6753 15.9545 18.7083 13.7507 19.7412 11.6181C19.7756 11.5825 19.9822 11.4403 20.0511 11.4403C20.6709 11.4048 21.3595 11.4048 22.2547 11.4048C22.6679 11.4048 23.081 11.4048 23.4942 11.4048C23.9074 11.4048 24.2861 11.4048 24.6993 11.4048C24.7337 11.4048 24.7338 11.4048 24.7682 11.4048C24.7682 11.4048 24.7682 11.4403 24.7337 11.4403C24.2861 12.3645 23.8385 13.2531 23.4254 14.1773C22.6334 15.8834 21.7727 17.6251 20.9119 19.3313C20.843 19.4024 20.5331 19.6156 20.2233 19.6512C20.0167 19.7223 19.7756 19.7223 19.4313 19.7223Z" fill="white"/>
<path d="M12.1321 19.7223C11.9255 19.7223 11.7189 19.7223 11.5123 19.7223C11.3057 19.7223 11.0647 19.7223 10.8581 19.7223H9.27428H8.37907L8.58565 19.2957C9.79075 16.772 11.0303 14.1773 12.3042 11.6536C12.3387 11.5825 12.6141 11.4403 12.7174 11.4403C13.3027 11.4048 13.9225 11.4048 14.7489 11.4048C15.0932 11.4048 15.4719 11.4048 15.8162 11.4048H15.9195C16.3327 11.4048 16.7114 11.4048 17.1246 11.4048C17.1246 11.4048 17.2623 11.4048 17.2968 11.4048C17.2968 11.4048 17.2968 11.4403 17.2623 11.4403C16.8147 12.4 16.3327 13.3242 15.8851 14.2839C15.0932 15.9545 14.2668 17.6962 13.406 19.3668C13.3716 19.4379 13.0962 19.6512 12.8207 19.6867C12.6485 19.7223 12.4075 19.7223 12.1321 19.7223Z" fill="white"/>
<path d="M4.04073 19.6867C3.00779 19.6867 2.04372 19.6867 0.907486 19.6512L1.42396 18.5493C2.52576 16.2389 3.66199 13.8574 4.83265 11.547C4.90151 11.5114 5.03924 11.4403 5.07367 11.4403C5.79673 11.4048 6.55422 11.4048 7.13955 11.4048H8.86111C9.17099 11.4048 9.44644 11.4048 9.75633 11.4048C9.79076 11.4048 9.82519 11.4048 9.82519 11.4048C9.82519 11.4403 9.79076 11.4403 9.79076 11.4759C8.55123 14.0706 7.24284 16.8431 5.93445 19.509C5.90002 19.5445 5.83116 19.6512 5.79673 19.6867C5.2114 19.6867 4.62606 19.6867 4.04073 19.6867Z" fill="white"/>
</svg>
