<svg width="1440" height="585" viewBox="0 0 1440 585" fill="none" xmlns="http://www.w3.org/2000/svg">
<mask id="mask0" mask-type="alpha" maskUnits="userSpaceOnUse" x="0" y="-1" width="1440" height="587">
<rect x="1439.5" y="584.5" width="1439" height="584" transform="rotate(180 1439.5 584.5)" fill="url(#paint0_linear)" stroke="#F2F2F2"/>
</mask>
<g mask="url(#mask0)">
<mask id="mask1" mask-type="alpha" maskUnits="userSpaceOnUse" x="-12" y="-4" width="1025" height="800">
<rect width="1025" height="800" transform="matrix(1 0 0 -1 -12 796)" fill="url(#paint1_linear)"/>
</mask>
<g mask="url(#mask1)">
<path d="M898.901 537.74L937.727 575.214C941.044 578.402 941.109 583.671 937.922 586.924L900.462 625.764C897.275 629.082 892.007 629.148 888.755 625.96L849.928 588.486C846.612 585.298 846.547 580.028 849.733 576.775L887.194 537.935C890.316 534.617 895.584 534.552 898.901 537.74Z" stroke="#98C0D6" stroke-miterlimit="10"/>
<path d="M951.644 482.96L990.471 520.434C993.788 523.622 993.853 528.892 990.666 532.145L953.205 570.985C950.018 574.303 944.75 574.368 941.498 571.18L902.672 533.706C899.355 530.518 899.29 525.249 902.477 521.996L939.938 483.156C943.124 479.903 948.392 479.838 951.644 482.96Z" stroke="#98C0D6" stroke-miterlimit="10"/>
<path d="M843.879 484.652L882.706 522.126C886.023 525.314 886.088 530.583 882.901 533.836L845.44 572.676C842.254 575.994 836.986 576.059 833.734 572.872L794.907 535.398C791.59 532.21 791.525 526.94 794.712 523.687L832.173 484.847C835.36 481.529 840.563 481.464 843.879 484.652Z" stroke="#98C0D6" stroke-miterlimit="10"/>
<path d="M788.86 431.564L827.686 469.038C831.003 472.226 831.068 477.495 827.882 480.748L790.421 519.588C787.234 522.906 781.966 522.971 778.714 519.784L739.888 482.31C736.571 479.122 736.506 473.852 739.692 470.599L777.153 431.759C780.34 428.506 785.608 428.376 788.86 431.564Z" stroke="#98C0D6" stroke-miterlimit="10"/>
<path d="M733.905 378.476L772.732 415.95C776.049 419.138 776.114 424.407 772.927 427.66L735.466 466.501C732.279 469.819 727.011 469.884 723.76 466.696L684.933 429.222C681.616 426.034 681.551 420.764 684.738 417.511L722.199 378.671C725.321 375.418 730.588 375.288 733.905 378.476Z" stroke="#98C0D6" stroke-miterlimit="10"/>
<path d="M678.884 325.388L717.71 362.862C721.027 366.05 721.092 371.319 717.905 374.572L680.444 413.412C677.258 416.73 671.99 416.795 668.738 413.608L629.911 376.134C626.595 372.946 626.53 367.676 629.716 364.423L667.177 325.583C670.364 322.33 675.567 322.2 678.884 325.388Z" stroke="#98C0D6" stroke-miterlimit="10"/>
<path d="M896.69 429.938L935.516 467.412C938.833 470.599 938.898 475.869 935.711 479.122L898.25 517.962C895.064 521.28 889.796 521.345 886.544 518.157L847.717 480.684C844.4 477.496 844.335 472.226 847.522 468.973L884.983 430.133C888.105 426.815 893.373 426.75 896.69 429.938Z" stroke="#98C0D6" stroke-miterlimit="10"/>
<path d="M841.668 376.85L880.495 414.324C883.812 417.512 883.877 422.782 880.69 426.035L843.229 464.875C840.042 468.193 834.774 468.258 831.523 465.07L792.696 427.596C789.379 424.408 789.314 419.138 792.501 415.885L829.962 377.045C833.149 373.727 838.351 373.662 841.668 376.85Z" stroke="#98C0D6" stroke-miterlimit="10"/>
<path d="M786.648 323.762L825.475 361.236C828.792 364.423 828.857 369.693 825.67 372.946L788.209 411.786C785.022 415.104 779.754 415.169 776.503 411.981L737.676 374.508C734.359 371.32 734.294 366.05 737.481 362.797L774.942 323.957C778.128 320.639 783.396 320.574 786.648 323.762Z" stroke="#98C0D6" stroke-miterlimit="10"/>
<path d="M731.694 270.674L770.52 308.147C773.837 311.335 773.902 316.605 770.715 319.858L733.254 358.698C730.068 362.016 724.8 362.081 721.548 358.893L682.721 321.419C679.404 318.231 679.339 312.962 682.526 309.709L719.987 270.869C723.109 267.616 728.377 267.486 731.694 270.674Z" stroke="#98C0D6" stroke-miterlimit="10"/>
<path d="M949.433 375.158L988.259 412.632C991.576 415.82 991.641 421.09 988.455 424.343L950.994 463.183C947.807 466.501 942.539 466.566 939.287 463.378L900.461 425.904C897.144 422.716 897.079 417.446 900.266 414.193L937.726 375.353C940.913 372.1 946.181 371.97 949.433 375.158Z" stroke="#98C0D6" stroke-miterlimit="10"/>
<path d="M894.479 322.07L933.305 359.544C936.622 362.732 936.687 368.002 933.5 371.255L896.04 410.095C892.853 413.413 887.585 413.478 884.333 410.29L845.507 372.816C842.19 369.628 842.125 364.359 845.311 361.106L882.772 322.266C885.894 319.013 891.162 318.948 894.479 322.07Z" stroke="#98C0D6" stroke-miterlimit="10"/>
<path d="M839.459 269.047L878.285 306.521C881.602 309.709 881.667 314.979 878.48 318.232L841.02 357.072C837.833 360.39 832.565 360.455 829.313 357.267L790.486 319.793C787.17 316.605 787.105 311.335 790.291 308.082L827.752 269.242C830.874 265.924 836.142 265.859 839.459 269.047Z" stroke="#98C0D6" stroke-miterlimit="10"/>
<path d="M947.223 267.356L986.05 304.83C989.367 308.018 989.432 313.288 986.245 316.541L948.784 355.381C945.597 358.699 940.329 358.764 937.078 355.576L898.251 318.102C894.934 314.914 894.869 309.644 898.056 306.391L935.517 267.551C938.704 264.298 943.906 264.168 947.223 267.356Z" stroke="#98C0D6" stroke-miterlimit="10"/>
<path d="M467.777 544.311L506.603 581.785C509.92 584.973 509.985 590.242 506.798 593.495L469.337 632.335C466.151 635.653 460.883 635.718 457.631 632.53L418.804 595.057C415.488 591.869 415.423 586.599 418.609 583.346L456.07 544.506C459.192 541.253 464.46 541.123 467.777 544.311Z" stroke="#98C0D6" stroke-miterlimit="10"/>
<path d="M575.541 542.684L614.368 580.158C617.685 583.346 617.75 588.616 614.563 591.869L577.102 630.709C573.915 634.027 568.647 634.092 565.396 630.904L526.569 593.43C523.252 590.242 523.187 584.973 526.374 581.72L563.835 542.879C566.957 539.627 572.225 539.496 575.541 542.684Z" stroke="#98C0D6" stroke-miterlimit="10"/>
<path d="M520.522 489.597L559.348 527.07C562.665 530.258 562.73 535.528 559.543 538.781L522.082 577.621C518.896 580.939 513.628 581.004 510.376 577.816L471.549 540.342C468.233 537.155 468.167 531.885 471.354 528.632L508.815 489.792C512.002 486.539 517.27 486.409 520.522 489.597Z" stroke="#98C0D6" stroke-miterlimit="10"/>
<path d="M683.306 541.058L722.133 578.531C725.45 581.719 725.515 586.989 722.328 590.242L684.867 629.082C681.681 632.4 676.413 632.465 673.161 629.277L634.334 591.803C631.017 588.616 630.952 583.346 634.139 580.093L671.6 541.253C674.787 537.935 680.055 537.87 683.306 541.058Z" stroke="#98C0D6" stroke-miterlimit="10"/>
<path d="M628.352 487.97L667.178 525.444C670.495 528.631 670.56 533.901 667.373 537.154L629.913 575.994C626.726 579.312 621.458 579.377 618.206 576.189L579.38 538.716C576.063 535.528 575.998 530.258 579.184 527.005L616.645 488.165C619.767 484.847 625.035 484.782 628.352 487.97Z" stroke="#98C0D6" stroke-miterlimit="10"/>
<path d="M573.33 434.882L612.157 472.356C615.473 475.544 615.538 480.814 612.352 484.067L574.891 522.907C571.704 526.225 566.436 526.29 563.184 523.102L524.358 485.628C521.041 482.44 520.976 477.17 524.163 473.918L561.624 435.077C564.745 431.759 570.013 431.694 573.33 434.882Z" stroke="#98C0D6" stroke-miterlimit="10"/>
<path d="M791.136 539.366L829.963 576.84C833.279 580.028 833.345 585.298 830.158 588.551L792.697 627.391C789.51 630.709 784.242 630.774 780.99 627.586L742.164 590.112C738.847 586.924 738.782 581.654 741.969 578.401L779.43 539.561C782.551 536.308 787.819 536.178 791.136 539.366Z" stroke="#98C0D6" stroke-miterlimit="10"/>
<path d="M736.116 486.279L774.942 523.753C778.259 526.941 778.324 532.21 775.137 535.463L737.677 574.303C734.49 577.621 729.222 577.686 725.97 574.498L687.144 537.025C683.827 533.837 683.762 528.567 686.949 525.314L724.409 486.474C727.531 483.221 732.799 483.091 736.116 486.279Z" stroke="#98C0D6" stroke-miterlimit="10"/>
<path d="M681.095 433.19L719.921 470.664C723.238 473.852 723.303 479.122 720.116 482.375L682.656 521.215C679.469 524.533 674.201 524.598 670.949 521.41L632.123 483.936C628.806 480.748 628.741 475.479 631.927 472.226L669.388 433.386C672.575 430.133 677.778 430.068 681.095 433.19Z" stroke="#98C0D6" stroke-miterlimit="10"/>
<path d="M626.075 380.168L664.902 417.641C668.219 420.829 668.284 426.099 665.097 429.352L627.636 468.192C624.449 471.51 619.181 471.575 615.929 468.387L577.103 430.913C573.786 427.725 573.721 422.456 576.908 419.203L614.369 380.363C617.555 377.045 622.823 376.98 626.075 380.168Z" stroke="#98C0D6" stroke-miterlimit="10"/>
<path d="M624.383 271.78L663.21 309.254C666.527 312.441 666.592 317.711 663.405 320.964L625.944 359.804C622.757 363.122 617.489 363.187 614.238 359.999L575.411 322.526C572.094 319.338 572.029 314.068 575.216 310.815L612.677 271.975C615.864 268.657 621.066 268.592 624.383 271.78Z" stroke="#98C0D6" stroke-miterlimit="10"/>
<path d="M413.276 490.702L452.103 528.176C455.42 531.364 455.485 536.634 452.298 539.887L414.837 578.727C411.65 582.045 406.383 582.11 403.131 578.922L364.304 541.448C360.987 538.26 360.922 532.991 364.109 529.738L401.57 490.898C404.692 487.645 409.96 487.515 413.276 490.702Z" stroke="#98C0D6" stroke-miterlimit="10"/>
<path d="M358.256 437.614L397.083 475.088C400.4 478.276 400.465 483.546 397.278 486.799L359.817 525.639C356.63 528.957 351.362 529.022 348.11 525.834L309.284 488.36C305.967 485.172 305.902 479.902 309.089 476.649L346.55 437.809C349.671 434.556 354.939 434.426 358.256 437.614Z" stroke="#98C0D6" stroke-miterlimit="10"/>
<path d="M303.235 384.527L342.062 422.001C345.378 425.189 345.443 430.458 342.257 433.711L304.861 472.551C301.674 475.869 296.406 475.934 293.154 472.747L254.328 435.273C251.011 432.085 250.946 426.815 254.133 423.562L291.594 384.722C294.715 381.469 299.983 381.339 303.235 384.527Z" stroke="#98C0D6" stroke-miterlimit="10"/>
<path d="M248.28 331.439L287.107 368.913C290.423 372.101 290.488 377.37 287.302 380.623L249.841 419.463C246.654 422.781 241.386 422.846 238.134 419.659L199.308 382.185C195.991 378.997 195.926 373.727 199.113 370.474L236.573 331.634C239.695 328.381 244.963 328.316 248.28 331.439Z" stroke="#98C0D6" stroke-miterlimit="10"/>
<path d="M466.021 435.988L504.847 473.462C508.164 476.65 508.229 481.92 505.043 485.172L467.582 524.012C464.395 527.33 459.127 527.396 455.875 524.208L417.049 486.734C413.732 483.546 413.667 478.276 416.854 475.023L454.314 436.183C457.501 432.865 462.769 432.8 466.021 435.988Z" stroke="#98C0D6" stroke-miterlimit="10"/>
<path d="M411.065 382.9L449.891 420.374C453.208 423.562 453.273 428.831 450.087 432.084L412.626 470.924C409.439 474.242 404.171 474.307 400.919 471.12L362.093 433.646C358.776 430.458 358.711 425.188 361.897 421.935L399.358 383.095C402.48 379.777 407.748 379.712 411.065 382.9Z" stroke="#98C0D6" stroke-miterlimit="10"/>
<path d="M356.044 329.812L394.871 367.286C398.188 370.474 398.253 375.744 395.066 378.996L357.605 417.836C354.419 421.154 349.151 421.22 345.899 418.032L307.072 380.558C303.755 377.37 303.69 372.1 306.877 368.847L344.338 330.007C347.46 326.754 352.728 326.624 356.044 329.812Z" stroke="#98C0D6" stroke-miterlimit="10"/>
<path d="M301.023 276.725L339.85 314.198C343.167 317.386 343.232 322.656 340.045 325.909L302.584 364.749C299.397 368.067 294.13 368.132 290.878 364.944L252.116 327.47C248.799 324.283 248.734 319.013 251.921 315.76L289.382 276.92C292.504 273.667 297.707 273.537 301.023 276.725Z" stroke="#98C0D6" stroke-miterlimit="10"/>
<path d="M518.829 381.209L557.656 418.682C560.973 421.87 561.038 427.14 557.851 430.393L520.39 469.233C517.203 472.551 511.935 472.616 508.684 469.428L469.857 431.954C466.54 428.766 466.475 423.497 469.662 420.244L507.058 381.469C510.245 378.151 515.512 378.086 518.829 381.209Z" stroke="#98C0D6" stroke-miterlimit="10"/>
<path d="M463.81 328.186L502.636 365.659C505.953 368.847 506.018 374.117 502.831 377.37L465.371 416.21C462.184 419.528 456.916 419.593 453.664 416.405L414.837 378.931C411.521 375.743 411.456 370.474 414.642 367.221L452.103 328.381C455.29 325.063 460.493 324.998 463.81 328.186Z" stroke="#98C0D6" stroke-miterlimit="10"/>
<path d="M408.79 275.098L447.616 312.572C450.933 315.76 450.998 321.029 447.812 324.282L410.351 363.122C407.164 366.44 401.896 366.505 398.644 363.318L359.818 325.844C356.501 322.656 356.436 317.386 359.623 314.133L397.083 275.293C400.27 271.975 405.538 271.91 408.79 275.098Z" stroke="#98C0D6" stroke-miterlimit="10"/>
<path d="M571.574 326.495L610.401 363.968C613.718 367.156 613.783 372.426 610.596 375.679L573.135 414.519C569.948 417.837 564.68 417.902 561.429 414.714L522.602 377.24C519.285 374.053 519.22 368.783 522.407 365.53L559.868 326.69C563.055 323.437 568.322 323.307 571.574 326.495Z" stroke="#98C0D6" stroke-miterlimit="10"/>
<path d="M516.618 273.406L555.445 310.88C558.762 314.068 558.827 319.338 555.64 322.591L518.179 361.431C514.992 364.749 509.724 364.814 506.473 361.626L467.646 324.152C464.329 320.964 464.264 315.694 467.451 312.442L504.912 273.601C508.033 270.348 513.301 270.218 516.618 273.406Z" stroke="#98C0D6" stroke-miterlimit="10"/>
<path d="M193.26 278.416L232.087 315.889C235.404 319.077 235.469 324.347 232.282 327.6L194.821 366.44C191.634 369.758 186.367 369.823 183.115 366.635L144.288 329.161C140.971 325.973 140.906 320.704 144.093 317.451L181.554 278.611C184.676 275.293 189.943 275.228 193.26 278.416Z" stroke="#98C0D6" stroke-miterlimit="10"/>
<path d="M36.7167 550.166L75.5433 587.64C78.8601 590.828 78.9251 596.098 75.7384 599.351L38.2776 638.191C35.0908 641.509 29.8229 641.574 26.5711 638.386L-12.2555 600.912C-15.5723 597.724 -15.6373 592.455 -12.4506 589.202L25.0102 550.362C28.1319 547.044 33.3999 546.979 36.7167 550.166Z" stroke="#98C0D6" stroke-miterlimit="10"/>
<path d="M144.482 548.475L183.308 585.949C186.625 589.137 186.69 594.406 183.503 597.659L146.043 636.499C142.856 639.817 137.588 639.882 134.336 636.695L95.5096 599.221C92.1927 596.033 92.1277 590.763 95.3144 587.51L132.775 548.67C135.962 545.417 141.165 545.287 144.482 548.475Z" stroke="#98C0D6" stroke-miterlimit="10"/>
<path d="M89.4622 495.387L128.289 532.861C131.606 536.049 131.671 541.318 128.484 544.571L91.0231 583.411C87.8363 586.729 82.5684 586.795 79.3166 583.607L40.49 546.133C37.1732 542.945 37.1081 537.675 40.2949 534.422L77.7557 495.582C80.9425 492.329 86.2104 492.199 89.4622 495.387Z" stroke="#98C0D6" stroke-miterlimit="10"/>
<path d="M252.118 547.304L290.944 584.778C294.261 587.965 294.326 593.235 291.139 596.488L253.679 635.328C250.492 638.646 245.224 638.711 241.972 635.523L203.146 598.05C199.829 594.862 199.764 589.592 202.951 586.339L240.411 547.499C243.598 544.181 248.866 544.116 252.118 547.304Z" stroke="#98C0D6" stroke-miterlimit="10"/>
<path d="M197.292 493.76L236.119 531.234C239.436 534.422 239.501 539.691 236.314 542.944L198.853 581.784C195.666 585.102 190.398 585.168 187.147 581.98L148.32 544.506C145.003 541.318 144.938 536.048 148.125 532.795L185.586 493.955C188.708 490.637 193.975 490.572 197.292 493.76Z" stroke="#98C0D6" stroke-miterlimit="10"/>
<path d="M142.27 440.672L181.097 478.146C184.413 481.334 184.478 486.604 181.292 489.857L143.831 528.697C140.644 532.015 135.376 532.08 132.124 528.892L93.2979 491.418C89.981 488.23 89.916 482.96 93.1028 479.707L130.564 440.867C133.75 437.614 138.953 437.484 142.27 440.672Z" stroke="#98C0D6" stroke-miterlimit="10"/>
<path d="M360.077 545.156L398.903 582.63C402.22 585.818 402.285 591.088 399.098 594.341L361.637 633.181C358.451 636.499 353.183 636.564 349.931 633.376L311.104 595.902C307.788 592.714 307.723 587.445 310.909 584.192L348.37 545.352C351.492 542.099 356.76 541.969 360.077 545.156Z" stroke="#98C0D6" stroke-miterlimit="10"/>
<path d="M305.057 492.069L343.883 529.542C347.2 532.73 347.265 538 344.079 541.253L306.618 580.093C303.431 583.411 298.163 583.476 294.911 580.288L256.085 542.814C252.768 539.627 252.703 534.357 255.89 531.104L293.35 492.264C296.537 489.011 301.74 488.946 305.057 492.069Z" stroke="#98C0D6" stroke-miterlimit="10"/>
<path d="M250.035 439.046L288.862 476.52C292.179 479.708 292.244 484.977 289.057 488.23L251.596 527.07C248.409 530.388 243.141 530.453 239.89 527.266L201.063 489.792C197.746 486.604 197.681 481.334 200.868 478.081L238.329 439.241C241.515 435.923 246.783 435.858 250.035 439.046Z" stroke="#98C0D6" stroke-miterlimit="10"/>
<path d="M195.081 385.958L233.907 423.432C237.224 426.62 237.289 431.889 234.102 435.142L196.641 473.982C193.455 477.3 188.187 477.365 184.935 474.177L146.108 436.704C142.792 433.516 142.727 428.246 145.913 424.993L183.374 386.153C186.496 382.835 191.764 382.77 195.081 385.958Z" stroke="#98C0D6" stroke-miterlimit="10"/>
<path d="M-18.3029 497.078L20.5236 534.552C23.8405 537.74 23.9055 543.01 20.7188 546.263L-16.742 585.103C-19.9288 588.421 -25.1967 588.486 -28.4485 585.298L-67.2101 547.824C-70.5269 544.636 -70.5919 539.367 -67.4052 536.114L-29.9444 497.274C-26.8226 493.956 -21.6197 493.891 -18.3029 497.078Z" stroke="#98C0D6" stroke-miterlimit="10"/>
<path d="M34.506 442.299L73.3325 479.773C76.6494 482.961 76.7144 488.231 73.5276 491.483L36.0669 530.324C32.8801 533.642 27.6122 533.707 24.3604 530.519L-14.4662 493.045C-17.783 489.857 -17.848 484.587 -14.6613 481.334L22.7995 442.494C25.9212 439.241 31.1892 439.176 34.506 442.299Z" stroke="#98C0D6" stroke-miterlimit="10"/>
<path d="M-20.5141 389.276L18.3125 426.75C21.6293 429.938 21.6944 435.208 18.5076 438.461L-18.9532 477.301C-22.14 480.619 -27.4079 480.684 -30.6597 477.496L-69.4863 440.022C-72.8031 436.834 -72.8682 431.564 -69.6814 428.311L-32.2206 389.471C-29.0338 386.153 -23.8309 386.088 -20.5141 389.276Z" stroke="#98C0D6" stroke-miterlimit="10"/>
<path d="M87.2505 387.585L126.077 425.058C129.394 428.246 129.459 433.516 126.272 436.769L88.8764 475.609C85.6896 478.927 80.4217 478.992 77.1699 475.804L38.3433 438.331C35.0264 435.143 34.9614 429.873 38.1482 426.62L75.609 387.78C78.7307 384.527 83.9987 384.397 87.2505 387.585Z" stroke="#98C0D6" stroke-miterlimit="10"/>
<path d="M32.2963 334.496L71.1229 371.97C74.4397 375.158 74.5047 380.428 71.318 383.681L33.8572 422.521C30.6704 425.839 25.4025 425.904 22.1507 422.716L-16.6759 385.242C-19.9927 382.054 -20.0578 376.784 -16.871 373.531L20.5898 334.691C23.7115 331.438 28.9795 331.308 32.2963 334.496Z" stroke="#98C0D6" stroke-miterlimit="10"/>
<path d="M-22.7253 281.409L16.1013 318.883C19.4181 322.07 19.4831 327.34 16.2964 330.593L-21.1644 369.433C-24.3512 372.751 -29.6191 372.816 -32.8709 369.628L-71.6975 332.155C-75.0143 328.967 -75.0794 323.697 -71.8926 320.444L-34.4318 281.604C-31.3101 278.351 -26.0421 278.286 -22.7253 281.409Z" stroke="#98C0D6" stroke-miterlimit="10"/>
<path d="M140.059 332.87L178.885 370.344C182.202 373.532 182.267 378.801 179.081 382.054L141.62 420.894C138.433 424.212 133.165 424.277 129.913 421.09L91.0867 383.616C87.7699 380.428 87.7048 375.158 90.8916 371.905L128.352 333.065C131.474 329.747 136.742 329.682 140.059 332.87Z" stroke="#98C0D6" stroke-miterlimit="10"/>
<path d="M85.0388 279.782L123.865 317.256C127.182 320.443 127.247 325.713 124.06 328.966L86.5996 367.806C83.4129 371.124 78.1449 371.189 74.8931 368.001L36.0666 330.528C32.7497 327.34 32.6847 322.07 35.8715 318.817L73.3323 279.977C76.519 276.724 81.787 276.594 85.0388 279.782Z" stroke="#98C0D6" stroke-miterlimit="10"/>
<path d="M996.61 -3.41788L1035.44 34.056C1038.75 37.2438 1038.82 42.5136 1035.63 45.7665L998.171 84.6066C994.984 87.9246 989.716 87.9897 986.465 84.8018L947.638 47.328C944.321 44.1401 944.256 38.8703 947.443 35.6174L984.904 -3.22269C988.025 -6.54069 993.293 -6.60576 996.61 -3.41788Z" stroke="#98C0D6" stroke-miterlimit="10"/>
<path d="M941.591 -56.5058L980.417 -19.032C983.734 -15.8441 983.799 -10.5744 980.612 -7.32144L943.152 31.5186C939.965 34.8366 934.697 34.9017 931.445 31.7138L892.618 -5.76002C889.302 -8.94789 889.237 -14.2177 892.423 -17.4706L929.884 -56.3106C933.006 -59.6286 938.274 -59.6937 941.591 -56.5058Z" stroke="#98C0D6" stroke-miterlimit="10"/>
<path d="M785.439 215.505L824.265 252.978C827.582 256.166 827.647 261.436 824.461 264.689L787 303.529C783.813 306.847 778.545 306.912 775.293 303.724L736.467 266.25C733.15 263.063 733.085 257.793 736.272 254.54L773.732 215.7C776.919 212.382 782.122 212.317 785.439 215.505Z" stroke="#98C0D6" stroke-miterlimit="10"/>
<path d="M730.419 162.417L769.245 199.891C772.562 203.079 772.627 208.349 769.441 211.602L731.98 250.442C728.793 253.76 723.525 253.825 720.273 250.637L681.447 213.163C678.13 209.975 678.065 204.705 681.251 201.452L718.712 162.612C721.899 159.294 727.167 159.229 730.419 162.417Z" stroke="#98C0D6" stroke-miterlimit="10"/>
<path d="M893.206 213.813L932.033 251.287C935.35 254.475 935.415 259.745 932.228 262.998L894.832 301.838C891.645 305.156 886.377 305.221 883.126 302.033L844.299 264.559C840.982 261.371 840.917 256.102 844.104 252.849L881.565 214.009C884.686 210.756 889.954 210.626 893.206 213.813Z" stroke="#98C0D6" stroke-miterlimit="10"/>
<path d="M838.249 160.726L877.075 198.199C880.392 201.387 880.457 206.657 877.27 209.91L839.81 248.75C836.623 252.068 831.355 252.133 828.103 248.945L789.277 211.471C785.96 208.283 785.895 203.014 789.082 199.761L826.542 160.921C829.664 157.668 834.932 157.538 838.249 160.726Z" stroke="#98C0D6" stroke-miterlimit="10"/>
<path d="M783.227 107.702L822.054 145.176C825.371 148.364 825.436 153.634 822.249 156.887L784.788 195.727C781.601 199.045 776.334 199.11 773.082 195.922L734.255 158.448C730.938 155.26 730.873 149.991 734.06 146.738L771.521 107.898C774.708 104.58 779.91 104.514 783.227 107.702Z" stroke="#98C0D6" stroke-miterlimit="10"/>
<path d="M1001.03 212.187L1039.86 249.661C1043.18 252.849 1043.24 258.119 1040.06 261.372L1002.59 300.212C999.408 303.53 994.14 303.595 990.888 300.407L952.062 262.933C948.745 259.745 948.68 254.475 951.866 251.222L989.327 212.382C992.449 209.064 997.717 208.999 1001.03 212.187Z" stroke="#98C0D6" stroke-miterlimit="10"/>
<path d="M946.014 159.099L984.84 196.573C988.157 199.761 988.222 205.031 985.035 208.284L947.574 247.124C944.388 250.442 939.12 250.507 935.868 247.319L897.041 209.845C893.724 206.657 893.659 201.387 896.846 198.134L934.307 159.294C937.494 156.041 942.697 155.911 946.014 159.099Z" stroke="#98C0D6" stroke-miterlimit="10"/>
<path d="M890.992 106.011L929.819 143.485C933.136 146.672 933.201 151.942 930.014 155.195L892.553 194.035C889.367 197.353 884.099 197.418 880.847 194.23L842.02 156.757C838.703 153.569 838.638 148.299 841.825 145.046L879.286 106.206C882.473 102.953 887.741 102.823 890.992 106.011Z" stroke="#98C0D6" stroke-miterlimit="10"/>
<path d="M836.037 52.9232L874.864 90.3971C878.181 93.585 878.246 98.8547 875.059 102.108L837.598 140.948C834.411 144.266 829.143 144.331 825.892 141.143L787.065 103.669C783.748 100.481 783.683 95.2114 786.87 91.9585L824.331 53.1184C827.452 49.8655 832.72 49.7354 836.037 52.9232Z" stroke="#98C0D6" stroke-miterlimit="10"/>
<path d="M998.822 104.385L1037.65 141.859C1040.97 145.046 1041.03 150.316 1037.84 153.569L1000.38 192.409C997.197 195.727 991.929 195.792 988.677 192.604L949.85 155.131C946.534 151.943 946.469 146.673 949.655 143.42L987.116 104.58C990.238 101.262 995.506 101.197 998.822 104.385Z" stroke="#98C0D6" stroke-miterlimit="10"/>
<path d="M943.803 51.2969L982.629 88.7707C985.946 91.9586 986.011 97.2283 982.825 100.481L945.364 139.321C942.177 142.639 936.909 142.704 933.657 139.517L894.831 102.043C891.514 98.8548 891.449 93.585 894.636 90.3321L932.096 51.4921C935.218 48.1741 940.486 48.109 943.803 51.2969Z" stroke="#98C0D6" stroke-miterlimit="10"/>
<path d="M888.781 -1.79151L927.607 35.6823C930.924 38.8702 930.989 44.14 927.802 47.3929L890.342 86.233C887.155 89.551 881.887 89.616 878.635 86.4281L839.809 48.9543C836.492 45.7664 836.427 40.4967 839.613 37.2437L877.074 -1.59632C880.261 -4.84926 885.529 -4.97939 888.781 -1.79151Z" stroke="#98C0D6" stroke-miterlimit="10"/>
<path d="M675.463 109.329L714.289 146.802C717.606 149.99 717.671 155.26 714.485 158.513L677.024 197.353C673.837 200.671 668.569 200.736 665.317 197.548L626.491 160.074C623.174 156.886 623.109 151.617 626.295 148.364L663.756 109.524C666.878 106.271 672.146 106.141 675.463 109.329Z" stroke="#98C0D6" stroke-miterlimit="10"/>
<path d="M620.443 56.2414L659.269 93.7153C662.586 96.9031 662.651 102.173 659.465 105.426L622.004 144.266C618.817 147.584 613.549 147.649 610.297 144.461L571.471 106.987C568.154 103.799 568.089 98.5296 571.276 95.2767L608.736 56.4366C611.923 53.1837 617.126 53.0535 620.443 56.2414Z" stroke="#98C0D6" stroke-miterlimit="10"/>
<path d="M565.423 3.15329L604.249 40.6271C607.566 43.815 607.631 49.0848 604.445 52.3377L566.984 91.1778C563.797 94.4958 558.529 94.5608 555.277 91.373L516.451 53.8991C513.134 50.7112 513.069 45.4415 516.256 42.1885L553.716 3.34848C556.903 0.0955373 562.171 -0.0345922 565.423 3.15329Z" stroke="#98C0D6" stroke-miterlimit="10"/>
<path d="M510.467 -49.9348L549.293 -12.461C552.61 -9.27309 552.675 -4.00334 549.488 -0.750399L512.027 38.0897C508.841 41.4077 503.573 41.4727 500.321 38.2848L461.494 0.811006C458.178 -2.37687 458.113 -7.64663 461.299 -10.8996L498.76 -49.7396C501.882 -52.9926 507.15 -53.1227 510.467 -49.9348Z" stroke="#98C0D6" stroke-miterlimit="10"/>
<path d="M728.208 54.6145L767.034 92.0883C770.351 95.2762 770.416 100.546 767.23 103.799L729.769 142.639C726.582 145.957 721.314 146.022 718.062 142.834L679.235 105.36C675.919 102.172 675.854 96.9027 679.04 93.6497L716.501 54.8096C719.688 51.4917 724.956 51.4266 728.208 54.6145Z" stroke="#98C0D6" stroke-miterlimit="10"/>
<path d="M673.251 1.52673L712.078 39.0006C715.394 42.1884 715.46 47.4582 712.273 50.7111L674.812 89.5512C671.625 92.8692 666.357 92.9343 663.105 89.7464L624.279 52.2725C620.962 49.0847 620.897 43.8149 624.084 40.562L661.545 1.72191C664.666 -1.59608 669.934 -1.66115 673.251 1.52673Z" stroke="#98C0D6" stroke-miterlimit="10"/>
<path d="M618.231 -51.5614L657.057 -14.0875C660.374 -10.8997 660.439 -5.62993 657.252 -2.37699L619.792 36.4631C616.605 39.7811 611.337 39.8461 608.085 36.6582L569.259 -0.815588C565.942 -4.00347 565.877 -9.27323 569.063 -12.5262L606.524 -51.3662C609.646 -54.6192 614.914 -54.7493 618.231 -51.5614Z" stroke="#98C0D6" stroke-miterlimit="10"/>
<path d="M781.016 -0.165064L819.843 37.3088C823.159 40.4967 823.224 45.7664 820.038 49.0194L782.577 87.8594C779.39 91.1774 774.122 91.2425 770.87 88.0546L732.044 50.5808C728.727 47.3929 728.662 42.1231 731.849 38.8702L769.31 0.0301243C772.431 -3.22281 777.699 -3.28788 781.016 -0.165064Z" stroke="#98C0D6" stroke-miterlimit="10"/>
<path d="M725.996 -53.1879L764.823 -15.714C768.14 -12.5261 768.205 -7.25641 765.018 -4.00347L727.557 34.8366C724.371 38.1546 719.103 38.2197 715.851 35.0318L677.024 -2.44206C673.707 -5.62994 673.642 -10.8997 676.829 -14.1526L714.29 -52.9927C717.477 -56.3107 722.745 -56.3758 725.996 -53.1879Z" stroke="#98C0D6" stroke-miterlimit="10"/>
<path d="M833.827 -54.8795L872.653 -17.4057C875.97 -14.2178 876.035 -8.94804 872.848 -5.69511L835.388 33.145C832.201 36.463 826.933 36.528 823.681 33.3401L784.854 -4.13368C781.538 -7.32156 781.473 -12.5913 784.659 -15.8443L822.12 -54.6843C825.242 -57.9373 830.51 -58.0674 833.827 -54.8795Z" stroke="#98C0D6" stroke-miterlimit="10"/>
<path d="M677.285 216.871L716.111 254.345C719.428 257.533 719.493 262.803 716.306 266.056L678.845 304.896C675.659 308.214 670.391 308.279 667.139 305.091L628.312 267.617C624.995 264.429 624.93 259.159 628.117 255.907L665.578 217.066C668.7 213.814 673.968 213.683 677.285 216.871Z" stroke="#98C0D6" stroke-miterlimit="10"/>
<path d="M461.689 220.189L500.516 257.663C503.833 260.851 503.898 266.121 500.711 269.374L463.25 308.149C460.063 311.467 454.795 311.532 451.544 308.344L412.717 270.87C409.4 267.682 409.335 262.412 412.522 259.159L449.983 220.319C453.105 217.132 458.372 217.001 461.689 220.189Z" stroke="#98C0D6" stroke-miterlimit="10"/>
<path d="M406.67 167.101L445.497 204.575C448.813 207.763 448.878 213.033 445.692 216.286L408.231 255.126C405.044 258.444 399.776 258.509 396.524 255.321L357.698 217.847C354.381 214.659 354.316 209.389 357.503 206.137L394.964 167.296C398.15 164.044 403.418 163.913 406.67 167.101Z" stroke="#98C0D6" stroke-miterlimit="10"/>
<path d="M569.455 218.563L608.281 256.037C611.598 259.224 611.663 264.494 608.476 267.747L571.016 306.587C567.829 309.905 562.561 309.97 559.309 306.782L520.548 269.309C517.231 266.121 517.166 260.851 520.353 257.598L557.813 218.758C560.935 215.44 566.203 215.375 569.455 218.563Z" stroke="#98C0D6" stroke-miterlimit="10"/>
<path d="M514.498 165.475L553.325 202.948C556.642 206.136 556.707 211.406 553.52 214.659L516.059 253.499C512.872 256.817 507.604 256.882 504.353 253.694L465.526 216.22C462.209 213.033 462.144 207.763 465.331 204.51L502.792 165.67C505.913 162.352 511.181 162.287 514.498 165.475Z" stroke="#98C0D6" stroke-miterlimit="10"/>
<path d="M459.479 112.387L498.305 149.861C501.622 153.049 501.687 158.318 498.5 161.571L461.039 200.346C457.853 203.664 452.585 203.729 449.333 200.541L410.506 163.068C407.19 159.88 407.124 154.61 410.311 151.357L447.772 112.517C450.894 109.264 456.162 109.199 459.479 112.387Z" stroke="#98C0D6" stroke-miterlimit="10"/>
<path d="M404.458 59.299L443.285 96.7728C446.602 99.9606 446.667 105.23 443.48 108.483L406.019 147.258C402.833 150.576 397.565 150.641 394.313 147.454L355.486 109.98C352.169 106.792 352.104 101.522 355.291 98.2691L392.752 59.4291C395.939 56.2412 401.142 56.1111 404.458 59.299Z" stroke="#98C0D6" stroke-miterlimit="10"/>
<path d="M352.365 113.818L391.192 151.292C394.508 154.48 394.573 159.75 391.387 163.002L353.926 201.843C350.739 205.161 345.471 205.226 342.219 202.038L303.393 164.564C300.076 161.376 300.011 156.106 303.198 152.853L340.659 114.013C343.78 110.76 349.048 110.695 352.365 113.818Z" stroke="#98C0D6" stroke-miterlimit="10"/>
<path d="M354.186 222.401L393.012 259.875C396.329 263.063 396.394 268.332 393.208 271.585L355.747 310.425C352.56 313.743 347.292 313.808 344.04 310.621L305.214 273.147C301.897 269.959 301.832 264.689 305.019 261.436L342.479 222.596C345.666 219.343 350.934 219.213 354.186 222.401Z" stroke="#98C0D6" stroke-miterlimit="10"/>
<path d="M300.465 168.857L339.292 206.331C342.609 209.519 342.674 214.789 339.487 218.042L302.026 256.882C298.839 260.2 293.571 260.265 290.319 257.077L251.493 219.603C248.176 216.415 248.111 211.146 251.298 207.893L288.759 169.053C291.88 165.8 297.148 165.67 300.465 168.857Z" stroke="#98C0D6" stroke-miterlimit="10"/>
<path d="M622.264 163.783L661.09 201.257C664.407 204.445 664.472 209.714 661.285 212.967L623.824 251.807C620.638 255.125 615.37 255.19 612.118 252.003L573.291 214.529C569.974 211.341 569.909 206.071 573.096 202.818L610.557 163.978C613.679 160.725 618.947 160.595 622.264 163.783Z" stroke="#98C0D6" stroke-miterlimit="10"/>
<path d="M567.244 110.695L606.07 148.169C609.387 151.357 609.452 156.627 606.265 159.879L568.805 198.72C565.618 202.038 560.35 202.103 557.098 198.915L518.272 161.441C514.955 158.253 514.89 152.983 518.076 149.73L555.537 110.89C558.724 107.637 563.927 107.572 567.244 110.695Z" stroke="#98C0D6" stroke-miterlimit="10"/>
<path d="M512.223 57.6724L551.05 95.1462C554.367 98.3341 554.432 103.604 551.245 106.857L513.784 145.697C510.598 149.015 505.33 149.08 502.078 145.892L463.251 108.418C459.934 105.23 459.869 99.9605 463.056 96.7076L500.517 57.8676C503.704 54.5496 508.972 54.4845 512.223 57.6724Z" stroke="#98C0D6" stroke-miterlimit="10"/>
<path d="M457.267 4.58424L496.093 42.0581C499.41 45.2459 499.475 50.5157 496.289 53.7686L458.828 92.6087C455.641 95.9267 450.373 95.9918 447.121 92.8039L408.295 55.3301C404.978 52.1422 404.913 46.8724 408.1 43.6195L445.56 4.77941C448.682 1.46141 453.95 1.39636 457.267 4.58424Z" stroke="#98C0D6" stroke-miterlimit="10"/>
<path d="M246.095 223.507L284.922 260.981C288.238 264.169 288.303 269.439 285.117 272.691L247.656 311.532C244.469 314.85 239.201 314.915 235.949 311.727L197.123 274.253C193.806 271.065 193.741 265.795 196.928 262.542L234.389 223.702C237.575 220.384 242.843 220.319 246.095 223.507Z" stroke="#98C0D6" stroke-miterlimit="10"/>
<path d="M244.405 115.119L283.232 152.593C286.549 155.781 286.614 161.051 283.427 164.304L245.966 203.144C242.779 206.462 237.511 206.527 234.26 203.339L195.433 165.865C192.116 162.677 192.051 157.408 195.238 154.155L232.699 115.314C235.82 112.062 241.088 111.931 244.405 115.119Z" stroke="#98C0D6" stroke-miterlimit="10"/>
<path d="M189.383 62.0315L228.21 99.5053C231.527 102.693 231.592 107.963 228.405 111.216L190.944 150.056C187.757 153.374 182.489 153.439 179.237 150.251L140.411 112.777C137.094 109.589 137.029 104.32 140.216 101.067L177.677 62.2266C180.863 58.9737 186.131 58.8436 189.383 62.0315Z" stroke="#98C0D6" stroke-miterlimit="10"/>
<path d="M134.428 8.94346L173.255 46.4173C176.572 49.6052 176.637 54.8749 173.45 58.1279L135.989 96.968C132.803 100.286 127.535 100.351 124.283 97.1631L85.4562 59.6893C82.1394 56.5014 82.0743 51.2316 85.2611 47.9787L122.722 9.13864C125.844 5.88571 131.112 5.82064 134.428 8.94346Z" stroke="#98C0D6" stroke-miterlimit="10"/>
<path d="M79.4068 -44.0792L118.233 -6.60541C121.55 -3.41753 121.615 1.85223 118.428 5.10517L80.9677 43.9453C77.7809 47.2633 72.513 47.3283 69.2612 44.1404L30.4346 6.66658C27.1178 3.4787 27.0527 -1.79106 30.2395 -5.044L67.7003 -43.8841C70.822 -47.2021 76.0899 -47.2671 79.4068 -44.0792Z" stroke="#98C0D6" stroke-miterlimit="10"/>
<path d="M242.194 7.31668L281.02 44.7905C284.337 47.9784 284.402 53.2481 281.215 56.5011L243.754 95.3411C240.568 98.6591 235.3 98.7242 232.048 95.5363L193.221 58.0625C189.904 54.8746 189.839 49.6048 193.026 46.3519L230.487 7.51187C233.609 4.25894 238.877 4.12881 242.194 7.31668Z" stroke="#98C0D6" stroke-miterlimit="10"/>
<path d="M187.172 -45.7707L225.998 -8.29692C229.315 -5.10905 229.38 0.160715 226.194 3.41365L188.733 42.2537C185.546 45.5717 180.278 45.6368 177.026 42.4489L138.2 4.97508C134.883 1.7872 134.818 -3.48256 138.005 -6.7355L175.465 -45.5756C178.652 -48.8285 183.855 -48.9586 187.172 -45.7707Z" stroke="#98C0D6" stroke-miterlimit="10"/>
<path d="M349.958 5.69032L388.785 43.1641C392.101 46.352 392.166 51.6218 388.98 54.8747L351.519 93.6497C348.332 96.9677 343.064 97.0328 339.812 93.8449L300.986 56.3711C297.669 53.1832 297.604 47.9134 300.791 44.6605L338.252 5.82045C341.438 2.56751 346.641 2.50245 349.958 5.69032Z" stroke="#98C0D6" stroke-miterlimit="10"/>
<path d="M294.808 -46.942L333.634 -9.46817C336.951 -6.28029 337.016 -1.01053 333.829 2.2424L296.369 41.0825C293.182 44.4005 287.914 44.4655 284.662 41.2776L245.836 3.80381C242.519 0.61593 242.454 -4.65383 245.641 -7.90676L283.101 -46.7468C286.288 -50.0648 291.556 -50.1298 294.808 -46.942Z" stroke="#98C0D6" stroke-miterlimit="10"/>
<path d="M297.018 60.34L335.844 97.8138C339.161 101.002 339.226 106.271 336.039 109.524L298.578 148.299C295.392 151.617 290.124 151.682 286.872 148.495L248.045 111.021C244.729 107.833 244.664 102.563 247.85 99.3101L285.311 60.4701C288.498 57.2172 293.701 57.1521 297.018 60.34Z" stroke="#98C0D6" stroke-miterlimit="10"/>
<path d="M402.767 -49.0892L441.593 -11.6154C444.91 -8.42751 444.975 -3.15775 441.788 0.095184L404.327 38.9352C401.141 42.2532 395.873 42.3183 392.621 39.1304L353.794 1.65659C350.478 -1.53129 350.413 -6.80105 353.599 -10.054L391.06 -48.894C394.182 -52.147 399.45 -52.2771 402.767 -49.0892Z" stroke="#98C0D6" stroke-miterlimit="10"/>
<path d="M31.0867 226.24L69.9133 263.714C73.2301 266.901 73.2951 272.171 70.1084 275.424L32.6476 314.264C29.4608 317.582 24.1929 317.647 20.9411 314.459L-17.8855 276.986C-21.2023 273.798 -21.2673 268.528 -18.0806 265.275L19.3802 226.435C22.502 223.182 27.7699 223.052 31.0867 226.24Z" stroke="#98C0D6" stroke-miterlimit="10"/>
<path d="M-23.9355 173.152L14.891 210.625C18.2079 213.813 18.2729 219.083 15.0861 222.336L-22.3746 261.176C-25.5614 264.494 -30.8293 264.559 -34.0811 261.371L-72.9077 223.897C-76.2245 220.71 -76.2896 215.44 -73.1028 212.187L-35.642 173.347C-32.5203 170.094 -27.2524 169.964 -23.9355 173.152Z" stroke="#98C0D6" stroke-miterlimit="10"/>
<path d="M138.851 224.613L177.678 262.087C180.995 265.275 181.06 270.545 177.873 273.798L140.412 312.638C137.225 315.956 131.957 316.021 128.706 312.833L89.8791 275.359C86.5622 272.171 86.4972 266.901 89.684 263.649L127.145 224.808C130.266 221.49 135.534 221.425 138.851 224.613Z" stroke="#98C0D6" stroke-miterlimit="10"/>
<path d="M83.8297 171.525L122.656 208.999C125.973 212.187 126.038 217.457 122.851 220.71L85.3905 259.485C82.2038 262.803 76.9358 262.868 73.684 259.68L34.8574 222.206C31.5406 219.018 31.4756 213.748 34.6623 210.495L72.1232 171.655C75.3099 168.402 80.5128 168.337 83.8297 171.525Z" stroke="#98C0D6" stroke-miterlimit="10"/>
<path d="M28.81 118.437L67.6366 155.911C70.9534 159.099 71.0185 164.369 67.8317 167.622L30.3709 206.462C27.1841 209.78 21.9162 209.845 18.6644 206.657L-20.1622 169.183C-23.479 165.995 -23.5441 160.725 -20.3573 157.472L17.1035 118.632C20.2903 115.379 25.5582 115.249 28.81 118.437Z" stroke="#98C0D6" stroke-miterlimit="10"/>
<path d="M-26.1467 65.3496L12.6799 102.823C15.9968 106.011 16.0618 111.281 12.875 114.534L-24.5858 153.374C-27.7726 156.692 -33.0405 156.757 -36.2923 153.569L-75.1189 116.095C-78.4357 112.908 -78.5007 107.638 -75.314 104.385L-37.8532 65.5448C-34.7314 62.2919 -29.4635 62.1618 -26.1467 65.3496Z" stroke="#98C0D6" stroke-miterlimit="10"/>
<path d="M191.594 169.834L230.421 207.308C233.738 210.495 233.803 215.765 230.616 219.018L193.155 257.858C189.968 261.176 184.7 261.241 181.449 258.053L142.622 220.58C139.305 217.392 139.24 212.122 142.427 208.869L179.888 170.029C183.075 166.776 188.342 166.711 191.594 169.834Z" stroke="#98C0D6" stroke-miterlimit="10"/>
<path d="M136.64 116.81L175.466 154.284C178.783 157.472 178.848 162.742 175.661 165.995L138.2 204.835C135.014 208.153 129.746 208.218 126.494 205.03L87.6674 167.556C84.3505 164.368 84.2855 159.099 87.4723 155.846L124.933 117.006C128.055 113.688 133.323 113.623 136.64 116.81Z" stroke="#98C0D6" stroke-miterlimit="10"/>
<path d="M81.6185 63.7231L120.445 101.197C123.762 104.385 123.827 109.655 120.64 112.908L83.1793 151.748C79.9925 155.066 74.7246 155.131 71.4728 151.943L32.6463 114.469C29.3294 111.281 29.2644 106.011 32.4512 102.758L69.912 63.9183C73.0987 60.6003 78.3016 60.5352 81.6185 63.7231Z" stroke="#98C0D6" stroke-miterlimit="10"/>
<path d="M26.5988 10.6352L65.4253 48.109C68.7422 51.2969 68.8072 56.5666 65.6205 59.8196L28.1597 98.6596C24.9729 101.978 19.705 102.043 16.4532 98.8548L-22.3734 61.381C-25.6902 58.1931 -25.7553 52.9233 -22.5685 49.6704L14.8923 10.8304C18.0791 7.51238 23.347 7.44731 26.5988 10.6352Z" stroke="#98C0D6" stroke-miterlimit="10"/>
<path d="M-28.3579 -42.453L10.4687 -4.97915C13.7855 -1.79128 13.8506 3.47848 10.6638 6.73142L-26.797 45.5064C-29.9838 48.8244 -35.2517 48.8895 -38.5035 45.7016L-77.33 8.22778C-80.6469 5.0399 -80.7119 -0.229854 -77.5252 -3.48279L-40.0644 -42.3228C-36.9426 -45.5107 -31.6747 -45.6408 -28.3579 -42.453Z" stroke="#98C0D6" stroke-miterlimit="10"/>
</g>
</g>
<defs>
<linearGradient id="paint0_linear" x1="1534.5" y1="856.659" x2="2772" y2="856.659" gradientUnits="userSpaceOnUse">
<stop stop-color="white"/>
<stop offset="1" stop-color="#E1EDF3"/>
</linearGradient>
<linearGradient id="paint1_linear" x1="1.06099e-05" y1="363.725" x2="1025" y2="363.726" gradientUnits="userSpaceOnUse">
<stop offset="0.401042" stop-color="#C4C4C4"/>
<stop offset="1" stop-color="#C4C4C4" stop-opacity="0"/>
</linearGradient>
</defs>
</svg>
