<svg width="30" height="30" viewBox="0 0 30 30" fill="none" xmlns="http://www.w3.org/2000/svg">
<path d="M28.2674 22.6009L22.5995 18.8212C21.8804 18.3454 20.9164 18.5018 20.3843 19.181L18.7334 21.3038C18.5212 21.5832 18.1357 21.6647 17.8284 21.4941L17.5145 21.3208C16.4733 20.7531 15.1779 20.0466 12.5684 17.4361C9.95893 14.8255 9.25078 13.5289 8.68317 12.49L8.51092 12.1761C8.33812 11.8693 8.41741 11.4822 8.69739 11.2678L10.8186 9.61745C11.4972 9.08538 11.6541 8.12186 11.1789 7.40223L7.39976 1.73486C6.91253 1.00211 5.93534 0.782279 5.18126 1.2356L2.81128 2.65901C2.0665 3.09702 1.52021 3.80572 1.28672 4.63745C0.43311 7.74728 1.07509 13.1139 8.9812 21.0205C15.2698 27.3086 19.9517 28.9999 23.1693 28.9999C23.9097 29.0032 24.6474 28.907 25.3627 28.7134C26.1944 28.4804 26.9036 27.9336 27.3411 27.1888L28.7661 24.8199C29.22 24.0659 29.0002 23.0881 28.2674 22.6009ZM27.9623 24.3415L26.5405 26.7114C26.2267 27.249 25.7165 27.6443 25.1171 27.8144C22.2463 28.6024 17.2313 27.95 9.64122 20.36C2.05119 12.7699 1.39882 7.75549 2.1868 4.88462C2.35741 4.28474 2.75277 3.774 3.2914 3.45957L5.66138 2.03781C5.98838 1.84095 6.41272 1.93664 6.6238 2.25435L8.67716 5.33685L10.4002 7.92172C10.6064 8.23397 10.5386 8.65229 10.2444 8.88306L8.12267 10.5334C7.47686 11.0272 7.29258 11.9207 7.69012 12.6294L7.85855 12.9356C8.45514 14.0293 9.19665 15.3898 11.9035 18.0966C14.6103 20.8029 15.9708 21.5444 17.0639 22.141L17.3707 22.31C18.0794 22.7075 18.9729 22.5232 19.4667 21.8774L21.1171 19.7557C21.3478 19.4615 21.7661 19.3937 22.0784 19.5999L27.7458 23.3796C28.064 23.5901 28.1592 24.0145 27.9623 24.3415Z" fill="white" stroke="white" stroke-width="0.5"/>
<path d="M24.3074 12.4589C24.0203 10.7719 23.2225 9.23425 22.0008 8.01262C20.7792 6.791 19.241 5.99317 17.5529 5.70554C17.5256 5.70116 17.4966 5.69897 17.4676 5.69897C17.2133 5.69897 16.9962 5.87998 16.9519 6.12988C16.9273 6.26932 16.9585 6.40876 17.0394 6.5236C17.1176 6.63406 17.2341 6.70679 17.3675 6.72866C18.8412 6.97638 20.187 7.67413 21.2604 8.74757C22.3268 9.81389 23.0251 11.1596 23.2788 12.6383C23.3204 12.8882 23.5358 13.0692 23.7906 13.0692C23.8163 13.0692 23.8426 13.0659 23.8759 13.0615L23.8852 13.0604C24.1641 13.0129 24.3539 12.7438 24.3074 12.4589Z" fill="white" stroke="white" stroke-width="0.5"/>
<path d="M28.9945 12.2489C28.5149 9.43708 27.1877 6.8779 25.1563 4.84642C23.1248 2.81439 20.5656 1.48723 17.7554 1.0082C17.7243 1.00273 17.6947 1 17.6652 1C17.4175 1 17.2053 1.181 17.1599 1.4309C17.1146 1.71799 17.3027 1.98156 17.5892 2.03187C20.1763 2.47043 22.5408 3.69588 24.4262 5.57589C26.3052 7.45481 27.5306 9.81986 27.9708 12.4146C28.0124 12.6639 28.2273 12.8449 28.4826 12.8449C28.5083 12.8449 28.5346 12.8417 28.5679 12.8373L28.5783 12.8362C28.7112 12.8154 28.8277 12.7432 28.907 12.6328C28.9874 12.5201 29.0185 12.384 28.9945 12.2489Z" fill="white" stroke="white" stroke-width="0.5"/>
</svg>
