<svg width="20" height="14" viewBox="0 0 20 14" fill="none" xmlns="http://www.w3.org/2000/svg">
<path d="M14.7987 3.68727L9.74469 8.1429L4.6745 3.6711C4.42382 3.45277 4.04376 3.47703 3.81734 3.72771C3.59901 3.97838 3.62327 4.35845 3.87395 4.58487L9.34846 9.41247C9.46167 9.50951 9.60723 9.56611 9.75278 9.56611C9.89834 9.56611 10.0358 9.51759 10.1571 9.41247L15.6074 4.60913C15.858 4.39079 15.8823 4.00264 15.664 3.75196C15.4295 3.4932 15.0494 3.46894 14.7987 3.68727Z" fill="#98C0D6"/>
<path d="M17.6769 0H1.81945C0.81673 0 0 0.81673 0 1.81945V11.4423C0 12.445 0.81673 13.2617 1.81945 13.2617H17.6769C18.6797 13.2617 19.4964 12.445 19.4964 11.4423V1.81945C19.4964 0.81673 18.6797 0 17.6769 0ZM18.2834 11.4423C18.2834 11.7738 18.0085 12.0488 17.6769 12.0488H1.81945C1.4879 12.0488 1.21296 11.7738 1.21296 11.4423V1.81945C1.21296 1.4879 1.4879 1.21296 1.81945 1.21296H17.6769C18.0085 1.21296 18.2834 1.4879 18.2834 1.81945V11.4423Z" fill="#98C0D6"/>
</svg>
