<svg width="24" height="24" viewBox="0 0 24 24" fill="none" xmlns="http://www.w3.org/2000/svg">
<path d="M23.2609 13.3139L22.9071 12.8434C22.5246 12.331 22.515 11.6369 22.8927 11.1151L23.237 10.64C23.7629 9.91329 23.5191 8.90243 22.711 8.47852L22.1851 8.20368C21.6114 7.90555 21.2958 7.28134 21.4058 6.65246L21.5062 6.07949C21.6592 5.20373 20.985 4.39318 20.0718 4.35591L19.4742 4.33262C18.8239 4.30467 18.2597 3.87611 18.078 3.26587L17.9107 2.70687C17.6573 1.84974 16.6915 1.4072 15.85 1.76123L15.3002 1.98949C14.7025 2.24104 14.0045 2.09197 13.5694 1.61682L13.1725 1.1836C12.5653 0.52212 11.4991 0.526778 10.8967 1.20223L10.5046 1.64012C10.0743 2.11992 9.38103 2.27831 8.7786 2.03607L8.22398 1.81247C7.3777 1.47242 6.42146 1.93359 6.17762 2.79072L6.01984 3.35438C5.84772 3.96927 5.2931 4.40716 4.64286 4.43976L4.0452 4.47237C3.13199 4.52361 2.47219 5.34348 2.63953 6.21924L2.7495 6.79221C2.86903 7.41643 2.56303 8.0453 1.99407 8.35275L1.47292 8.63691C0.674455 9.07013 0.444957 10.0856 0.985234 10.803L1.33904 11.2735C1.72154 11.7859 1.7311 12.48 1.35339 13.0017L1.00914 13.4769C0.483207 14.2036 0.727049 15.2144 1.53507 15.6384L2.061 15.9132C2.63475 16.2113 2.95031 16.8355 2.84034 17.4644L2.73994 18.0374C2.58694 18.9132 3.26109 19.7237 4.1743 19.761L4.77195 19.7843C5.42219 19.8122 5.98637 20.2408 6.16806 20.851L6.3354 21.41C6.58881 22.2671 7.55461 22.7097 8.3961 22.3556L8.94594 22.1274C9.54359 21.8758 10.2416 22.0249 10.6767 22.5001L11.0736 22.9333C11.6856 23.5948 12.7518 23.5901 13.3494 22.9146L13.7415 22.4768C14.1718 21.997 14.8651 21.8386 15.4675 22.0808L16.0221 22.3044C16.8684 22.6445 17.8246 22.1833 18.0685 21.3262L18.2263 20.7625C18.3984 20.1476 18.953 19.7097 19.6032 19.6771L20.2009 19.6445C21.1141 19.5933 21.7739 18.7734 21.6066 17.8976L21.4966 17.3247C21.3771 16.7005 21.6831 16.0716 22.252 15.7641L22.7732 15.48C23.5716 15.0514 23.8011 14.0359 23.2609 13.3139ZM6.66531 10.1276C6.66531 8.86051 7.71717 7.83568 9.01766 7.83568C10.3181 7.83568 11.37 8.86051 11.37 10.1276C11.37 11.3946 10.3181 12.4195 9.01766 12.4195C7.71717 12.4195 6.66531 11.39 6.66531 10.1276ZM9.47187 16.039C9.27106 16.2765 8.90769 16.3092 8.66385 16.1135C8.42001 15.9179 8.38654 15.5638 8.58735 15.3262L14.7599 8.08257C14.9607 7.84499 15.3241 7.81239 15.5679 8.00803C15.8117 8.20368 15.8452 8.55772 15.6444 8.79529L9.47187 16.039ZM15.2189 16.2765C13.9184 16.2765 12.8665 15.2517 12.8665 13.9847C12.8665 12.7176 13.9184 11.6928 15.2189 11.6928C16.5194 11.6928 17.5712 12.7176 17.5712 13.9847C17.5712 15.2517 16.5194 16.2765 15.2189 16.2765Z" fill="white"/>
</svg>
