<svg width="25" height="21" viewBox="0 0 25 21" fill="none" xmlns="http://www.w3.org/2000/svg">
<path d="M7.80002 13.2676C8.01238 13.2676 8.15395 13.3377 8.29552 13.4779C8.8618 14.1789 9.49887 14.8799 10.0652 15.5108C10.2067 15.7211 10.2067 15.7912 10.0652 15.9314C8.64945 17.2633 7.23374 18.6653 5.81803 19.9973C5.25175 20.5581 4.47311 20.5581 3.90683 19.9973C3.48212 19.6468 3.05741 19.2261 2.63269 18.8055C2.1372 18.2447 2.1372 17.4736 2.63269 16.9829C3.76526 15.8613 4.89782 14.6696 6.10117 13.6181C6.52589 13.2676 7.23374 13.4779 7.80002 13.2676ZM15.3033 1.21028C16.2943 1.21028 17.2145 1.49068 17.9931 2.19169C18.2763 2.47209 18.6302 2.68239 19.0549 2.68239C19.4088 2.68239 19.7627 2.82259 19.9751 3.10299C20.1875 3.3133 20.329 3.5236 20.5414 3.6638C20.9661 4.0143 21.1077 4.36481 21.1077 4.85551C21.1077 5.48642 21.6032 5.83692 22.2402 5.55652C22.4526 5.48642 22.5234 5.55652 22.6649 5.69672C23.0897 6.11732 23.5852 6.53793 24.0099 7.02863C24.3638 7.37914 24.3638 7.72964 24.0099 8.15024C23.3728 8.71105 22.6649 9.41205 21.9571 10.043C21.6032 10.3935 21.1785 10.3935 20.8245 10.043C20.4706 9.69246 20.1167 9.34195 19.7627 8.99145C19.4796 8.71105 19.1965 8.57085 19.4796 8.08014C19.6212 7.79974 19.4088 7.51934 19.1257 7.30903C18.8425 7.09873 18.5594 7.16883 18.347 7.37914C17.71 8.01004 17.0729 8.57085 16.4358 9.20175C16.1527 9.48215 16.0111 9.48215 15.728 9.20175C15.3033 8.85125 14.8786 8.50075 14.4538 8.15024C14.0291 7.79974 14.0291 7.37914 14.3831 7.02863C14.9493 6.46783 15.5156 5.97712 16.0111 5.41632C16.7898 4.64521 16.719 3.804 15.9403 3.10299C15.3741 2.61229 14.737 2.26179 13.9583 2.05148C13.746 1.98138 13.5336 1.98138 13.4628 1.63088C13.4628 1.49068 13.746 1.49068 13.8876 1.42058C14.3831 1.28038 14.8786 1.21028 15.3033 1.21028ZM17.356 18.3148C18.1347 18.3148 18.9133 17.6138 18.9133 16.8427C18.9133 16.0716 18.2055 15.3706 17.4268 15.3706C16.6482 15.3706 15.9403 16.0015 15.8696 16.7726C15.7988 17.6138 16.5066 18.3148 17.356 18.3148ZM12.5426 6.18742C12.5426 6.81833 12.3303 7.51934 12.2595 8.22034C12.1887 8.64095 12.3303 8.99145 12.6842 9.34195C14.8078 11.0945 16.9313 12.847 19.0549 14.5294C20.1167 15.3706 20.6122 16.352 20.1875 17.6839C19.7627 18.9457 18.8425 19.7169 17.4976 19.8571C16.5774 19.9973 15.728 19.6467 15.0909 18.8756C13.3213 16.8427 11.4809 14.8799 9.78201 12.847C9.21573 12.146 8.57866 11.9357 7.65845 12.0759C6.87981 12.2161 6.17196 12.3563 5.32254 12.2862C3.26976 11.9357 1.28777 9.90276 0.792274 7.51934C0.792274 7.23893 0.721489 7.02863 0.721489 6.74823C0.721489 6.39773 0.792274 6.11732 1.1462 5.97712C1.50013 5.83692 1.78327 5.90702 2.06641 6.18742C2.84505 6.88843 3.62369 7.65954 4.33154 8.43064C4.5439 8.64095 4.68547 8.71105 5.03939 8.57085C5.81803 8.29044 6.66746 8.01004 7.51688 7.79974C7.80002 7.72964 7.87081 7.58944 7.94159 7.37914C8.22473 6.53793 8.50788 5.69672 8.79102 4.85551C8.8618 4.64521 8.8618 4.43491 8.64945 4.29471C7.87081 3.5937 7.09217 2.82259 6.31353 2.05148C5.9596 1.70098 5.9596 1.21028 6.31353 0.929874C6.52589 0.789673 6.80903 0.789673 7.02138 0.789673C9.71123 0.859774 12.755 3.2432 12.5426 6.18742Z" fill="white"/>
</svg>
