<svg width="20" height="21" viewBox="0 0 20 21" fill="none" xmlns="http://www.w3.org/2000/svg">
<path d="M16.617 4.32386H15.9726C11.534 4.32386 7.09531 4.32386 2.72824 4.32386C1.72596 4.32386 0.866858 4.5547 0.150944 5.24723C-0.207013 4.16997 0.580492 2.86187 1.79755 2.63103C2.94301 2.40019 4.08847 2.24629 5.23393 2.0924C7.73963 1.70767 10.3169 1.32293 12.8226 0.938197C13.3238 0.86125 13.7533 0.784303 14.2545 0.707356C15.4715 0.630409 16.5454 1.55377 16.6886 2.86187C16.6886 3.32355 16.617 3.78523 16.617 4.32386ZM19.6954 9.55626C17.834 9.55626 15.9726 9.55626 14.1829 9.55626C12.6079 9.55626 11.2476 10.4796 10.7465 11.9416C9.95897 14.25 11.6056 16.5584 14.0397 16.5584C15.6863 16.5584 17.4045 16.5584 19.0511 16.5584H19.6954C19.6954 17.174 19.767 17.7126 19.6954 18.3282C19.5522 19.5594 18.6215 20.4058 17.4045 20.4058C12.3931 20.4058 7.38168 20.4058 2.37028 20.4058C1.08163 20.4058 0.0793524 19.4055 0.0793524 18.0204C0.0793524 14.7117 0.0793524 11.403 0.0793524 8.09426C0.0793524 6.78617 1.01004 5.78586 2.37028 5.70891C7.38168 5.70891 12.4647 5.70891 17.4761 5.70891C18.8363 5.70891 19.767 6.70922 19.767 8.09426C19.6954 8.63289 19.6954 9.01763 19.6954 9.55626Z" fill="white"/>
</svg>
